<svg width="1519pt" height="698pt" xmlns="http://www.w3.org/2000/svg" xmlns:xlink="http://www.w3.org/1999/xlink" xmlns:ev="http://www.w3.org/2001/xml-events" style="overflow: hidden; "><g id="viewport-20250530123710892" class="svg-pan-zoom_viewport" transform="matrix(0.541105003645928,0,0,0.541105003645928,148.29993801367317,91.54298228938228)" style="transform: matrix(0.541105, 0, 0, 0.541105, 148.3, 91.543);">
<g id="graph0" class="graph" transform="scale(1 1) rotate(0) translate(4 694.31)">
<title>G</title>
<!-- users -->
<g id="node1" class="node">
<title>users</title>
<polygon fill="blue" stroke="none" points="1027,-238.31 1027,-298.31 1509,-298.31 1509,-238.31 1027,-238.31" data-darkreader-inline-fill="" style="--darkreader-inline-fill: var(--darkreader-background-0000ff, #0000cc); --darkreader-inline-stroke: none;" data-darkreader-inline-stroke=""></polygon>
<polygon fill="none" stroke="#29235c" points="1027,-238.31 1027,-298.31 1509,-298.31 1509,-238.31 1027,-238.31" data-darkreader-inline-stroke="" style="--darkreader-inline-stroke: var(--darkreader-text-29235c, #a09ad8);"></polygon>
<text text-anchor="start" x="1225.3" y="-259.51" font-family="Helvetica,sans-Serif" font-weight="bold" font-size="32.00" fill="#ffffff" data-darkreader-inline-fill="" style="--darkreader-inline-fill: var(--darkreader-text-ffffff, #e8e6e3);">users</text>
<polygon fill="#e7e2dd" stroke="none" points="1027,-178.31 1027,-238.31 1509,-238.31 1509,-178.31 1027,-178.31" data-darkreader-inline-fill="" style="--darkreader-inline-fill: var(--darkreader-background-e7e2dd, #322b24); --darkreader-inline-stroke: none;" data-darkreader-inline-stroke=""></polygon>
<polygon fill="none" stroke="#29235c" points="1027,-178.31 1027,-238.31 1509,-238.31 1509,-178.31 1027,-178.31" data-darkreader-inline-stroke="" style="--darkreader-inline-stroke: var(--darkreader-text-29235c, #a09ad8);"></polygon>
<text text-anchor="start" x="1038" y="-198.51" font-family="Helvetica,sans-Serif" font-size="32.00" fill="#29235c" data-darkreader-inline-fill="" style="--darkreader-inline-fill: var(--darkreader-text-29235c, #a09ad8);">username &#160;&#160;</text>
<polygon fill="#e7e2dd" stroke="none" points="1206.97,-188.91 1206.97,-227.31 1498.61,-227.31 1498.61,-188.91 1206.97,-188.91" data-darkreader-inline-fill="" style="--darkreader-inline-fill: var(--darkreader-background-e7e2dd, #322b24); --darkreader-inline-stroke: none;" data-darkreader-inline-stroke=""></polygon>
<text text-anchor="start" x="1206.97" y="-199.51" font-family="Helvetica,sans-Serif" font-style="italic" font-size="32.00" fill="#29235c" data-darkreader-inline-fill="" style="--darkreader-inline-fill: var(--darkreader-text-29235c, #a09ad8);">VARCHAR(255) &#160;&#160;pk</text>
<polygon fill="#ffffff" stroke="none" points="1027,-118.31 1027,-178.31 1509,-178.31 1509,-118.31 1027,-118.31" data-darkreader-inline-fill="" style="--darkreader-inline-fill: var(--darkreader-background-ffffff, #181a1b); --darkreader-inline-stroke: none;" data-darkreader-inline-stroke=""></polygon>
<polygon fill="none" stroke="#29235c" points="1027,-118.31 1027,-178.31 1509,-178.31 1509,-118.31 1027,-118.31" data-darkreader-inline-stroke="" style="--darkreader-inline-stroke: var(--darkreader-text-29235c, #a09ad8);"></polygon>
<text text-anchor="start" x="1038" y="-138.51" font-family="Helvetica,sans-Serif" font-size="32.00" fill="#29235c" data-darkreader-inline-fill="" style="--darkreader-inline-fill: var(--darkreader-text-29235c, #a09ad8);">name &#160;&#160;</text>
<polygon fill="#ffffff" stroke="none" points="1192.44,-128.91 1192.44,-167.31 1498,-167.31 1498,-128.91 1192.44,-128.91" data-darkreader-inline-fill="" style="--darkreader-inline-fill: var(--darkreader-background-ffffff, #181a1b); --darkreader-inline-stroke: none;" data-darkreader-inline-stroke=""></polygon>
<text text-anchor="start" x="1240.16" y="-139.51" font-family="Helvetica,sans-Serif" font-style="italic" font-size="32.00" fill="#29235c" data-darkreader-inline-fill="" style="--darkreader-inline-fill: var(--darkreader-text-29235c, #a09ad8);">VARCHAR(255) &#160;&#160;</text>
<polygon fill="#e7e2dd" stroke="none" points="1027,-58.31 1027,-118.31 1509,-118.31 1509,-58.31 1027,-58.31" data-darkreader-inline-fill="" style="--darkreader-inline-fill: var(--darkreader-background-e7e2dd, #322b24); --darkreader-inline-stroke: none;" data-darkreader-inline-stroke=""></polygon>
<polygon fill="none" stroke="#29235c" points="1027,-58.31 1027,-118.31 1509,-118.31 1509,-58.31 1027,-58.31" data-darkreader-inline-stroke="" style="--darkreader-inline-stroke: var(--darkreader-text-29235c, #a09ad8);"></polygon>
<text text-anchor="start" x="1038" y="-78.51" font-family="Helvetica,sans-Serif" font-size="32.00" fill="#29235c" data-darkreader-inline-fill="" style="--darkreader-inline-fill: var(--darkreader-text-29235c, #a09ad8);">avatar_url &#160;&#160;</text>
<polygon fill="#e7e2dd" stroke="none" points="1214.66,-68.91 1214.66,-107.31 1498,-107.31 1498,-68.91 1214.66,-68.91" data-darkreader-inline-fill="" style="--darkreader-inline-fill: var(--darkreader-background-e7e2dd, #322b24); --darkreader-inline-stroke: none;" data-darkreader-inline-stroke=""></polygon>
<text text-anchor="start" x="1222.36" y="-79.51" font-family="Helvetica,sans-Serif" font-style="italic" font-size="32.00" fill="#29235c" data-darkreader-inline-fill="" style="--darkreader-inline-fill: var(--darkreader-text-29235c, #a09ad8);">VARCHAR(1000) &#160;&#160;</text>
<polygon fill="none" stroke="#29235c" stroke-width="2" points="1026,-57.31 1026,-299.31 1510,-299.31 1510,-57.31 1026,-57.31" data-darkreader-inline-stroke="" style="--darkreader-inline-stroke: var(--darkreader-text-29235c, #a09ad8);"></polygon>
</g>
<!-- topics -->
<g id="node2" class="node">
<title>topics</title>
<polygon fill="blue" stroke="none" points="1037.5,-628.31 1037.5,-688.31 1498.5,-688.31 1498.5,-628.31 1037.5,-628.31" data-darkreader-inline-fill="" style="--darkreader-inline-fill: var(--darkreader-background-0000ff, #0000cc); --darkreader-inline-stroke: none;" data-darkreader-inline-stroke=""></polygon>
<polygon fill="none" stroke="#29235c" points="1037.5,-628.31 1037.5,-688.31 1498.5,-688.31 1498.5,-628.31 1037.5,-628.31" data-darkreader-inline-stroke="" style="--darkreader-inline-stroke: var(--darkreader-text-29235c, #a09ad8);"></polygon>
<text text-anchor="start" x="1220.88" y="-649.51" font-family="Helvetica,sans-Serif" font-weight="bold" font-size="32.00" fill="#ffffff" data-darkreader-inline-fill="" style="--darkreader-inline-fill: var(--darkreader-text-ffffff, #e8e6e3);">topics</text>
<polygon fill="#e7e2dd" stroke="none" points="1037.5,-568.31 1037.5,-628.31 1498.5,-628.31 1498.5,-568.31 1037.5,-568.31" data-darkreader-inline-fill="" style="--darkreader-inline-fill: var(--darkreader-background-e7e2dd, #322b24); --darkreader-inline-stroke: none;" data-darkreader-inline-stroke=""></polygon>
<polygon fill="none" stroke="#29235c" points="1037.5,-568.31 1037.5,-628.31 1498.5,-628.31 1498.5,-568.31 1037.5,-568.31" data-darkreader-inline-stroke="" style="--darkreader-inline-stroke: var(--darkreader-text-29235c, #a09ad8);"></polygon>
<text text-anchor="start" x="1048.5" y="-588.51" font-family="Helvetica,sans-Serif" font-size="32.00" fill="#29235c" data-darkreader-inline-fill="" style="--darkreader-inline-fill: var(--darkreader-text-29235c, #a09ad8);">slug &#160;&#160;</text>
<polygon fill="#e7e2dd" stroke="none" points="1164.87,-578.91 1164.87,-617.31 1487.5,-617.31 1487.5,-578.91 1164.87,-578.91" data-darkreader-inline-fill="" style="--darkreader-inline-fill: var(--darkreader-background-e7e2dd, #322b24); --darkreader-inline-stroke: none;" data-darkreader-inline-stroke=""></polygon>
<text text-anchor="start" x="1195.86" y="-589.51" font-family="Helvetica,sans-Serif" font-style="italic" font-size="32.00" fill="#29235c" data-darkreader-inline-fill="" style="--darkreader-inline-fill: var(--darkreader-text-29235c, #a09ad8);">VARCHAR(255) &#160;&#160;pk</text>
<polygon fill="#ffffff" stroke="none" points="1037.5,-508.31 1037.5,-568.31 1498.5,-568.31 1498.5,-508.31 1037.5,-508.31" data-darkreader-inline-fill="" style="--darkreader-inline-fill: var(--darkreader-background-ffffff, #181a1b); --darkreader-inline-stroke: none;" data-darkreader-inline-stroke=""></polygon>
<polygon fill="none" stroke="#29235c" points="1037.5,-508.31 1037.5,-568.31 1498.5,-568.31 1498.5,-508.31 1037.5,-508.31" data-darkreader-inline-stroke="" style="--darkreader-inline-stroke: var(--darkreader-text-29235c, #a09ad8);"></polygon>
<text text-anchor="start" x="1048.5" y="-528.51" font-family="Helvetica,sans-Serif" font-size="32.00" fill="#29235c" data-darkreader-inline-fill="" style="--darkreader-inline-fill: var(--darkreader-text-29235c, #a09ad8);">description &#160;&#160;</text>
<polygon fill="#ffffff" stroke="none" points="1229.92,-518.91 1229.92,-557.31 1487.77,-557.31 1487.77,-518.91 1229.92,-518.91" data-darkreader-inline-fill="" style="--darkreader-inline-fill: var(--darkreader-background-ffffff, #181a1b); --darkreader-inline-stroke: none;" data-darkreader-inline-stroke=""></polygon>
<text text-anchor="start" x="1229.92" y="-529.51" font-family="Helvetica,sans-Serif" font-style="italic" font-size="32.00" fill="#29235c" data-darkreader-inline-fill="" style="--darkreader-inline-fill: var(--darkreader-text-29235c, #a09ad8);">VARCHAR(255) &#160;&#160;</text>
<polygon fill="#e7e2dd" stroke="none" points="1037.5,-448.31 1037.5,-508.31 1498.5,-508.31 1498.5,-448.31 1037.5,-448.31" data-darkreader-inline-fill="" style="--darkreader-inline-fill: var(--darkreader-background-e7e2dd, #322b24); --darkreader-inline-stroke: none;" data-darkreader-inline-stroke=""></polygon>
<polygon fill="none" stroke="#29235c" points="1037.5,-448.31 1037.5,-508.31 1498.5,-508.31 1498.5,-448.31 1037.5,-448.31" data-darkreader-inline-stroke="" style="--darkreader-inline-stroke: var(--darkreader-text-29235c, #a09ad8);"></polygon>
<text text-anchor="start" x="1048.5" y="-468.51" font-family="Helvetica,sans-Serif" font-size="32.00" fill="#29235c" data-darkreader-inline-fill="" style="--darkreader-inline-fill: var(--darkreader-text-29235c, #a09ad8);">img_url &#160;&#160;</text>
<polygon fill="#e7e2dd" stroke="none" points="1195.98,-458.91 1195.98,-497.31 1487.5,-497.31 1487.5,-458.91 1195.98,-458.91" data-darkreader-inline-fill="" style="--darkreader-inline-fill: var(--darkreader-background-e7e2dd, #322b24); --darkreader-inline-stroke: none;" data-darkreader-inline-stroke=""></polygon>
<text text-anchor="start" x="1211.86" y="-469.51" font-family="Helvetica,sans-Serif" font-style="italic" font-size="32.00" fill="#29235c" data-darkreader-inline-fill="" style="--darkreader-inline-fill: var(--darkreader-text-29235c, #a09ad8);">VARCHAR(1000) &#160;&#160;</text>
<polygon fill="none" stroke="#29235c" stroke-width="2" points="1036.5,-447.31 1036.5,-689.31 1499.5,-689.31 1499.5,-447.31 1036.5,-447.31" data-darkreader-inline-stroke="" style="--darkreader-inline-stroke: var(--darkreader-text-29235c, #a09ad8);"></polygon>
</g>
<!-- articles -->
<g id="node3" class="node">
<title>articles</title>
<polygon fill="blue" stroke="none" points="455,-628.31 455,-688.31 987,-688.31 987,-628.31 455,-628.31" data-darkreader-inline-fill="" style="--darkreader-inline-fill: var(--darkreader-background-0000ff, #0000cc); --darkreader-inline-stroke: none;" data-darkreader-inline-stroke=""></polygon>
<polygon fill="none" stroke="#29235c" points="455,-628.31 455,-688.31 987,-688.31 987,-628.31 455,-628.31" data-darkreader-inline-stroke="" style="--darkreader-inline-stroke: var(--darkreader-text-29235c, #a09ad8);"></polygon>
<text text-anchor="start" x="664.96" y="-649.51" font-family="Helvetica,sans-Serif" font-weight="bold" font-size="32.00" fill="#ffffff" data-darkreader-inline-fill="" style="--darkreader-inline-fill: var(--darkreader-text-ffffff, #e8e6e3);">articles</text>
<polygon fill="#e7e2dd" stroke="none" points="455,-568.31 455,-628.31 987,-628.31 987,-568.31 455,-568.31" data-darkreader-inline-fill="" style="--darkreader-inline-fill: var(--darkreader-background-e7e2dd, #322b24); --darkreader-inline-stroke: none;" data-darkreader-inline-stroke=""></polygon>
<polygon fill="none" stroke="#29235c" points="455,-568.31 455,-628.31 987,-628.31 987,-568.31 455,-568.31" data-darkreader-inline-stroke="" style="--darkreader-inline-stroke: var(--darkreader-text-29235c, #a09ad8);"></polygon>
<text text-anchor="start" x="466" y="-588.51" font-family="Helvetica,sans-Serif" font-size="32.00" fill="#29235c" data-darkreader-inline-fill="" style="--darkreader-inline-fill: var(--darkreader-text-29235c, #a09ad8);">article_id &#160;&#160;</text>
<polygon fill="#e7e2dd" stroke="none" points="711.22,-578.91 711.22,-617.31 976,-617.31 976,-578.91 711.22,-578.91" data-darkreader-inline-fill="" style="--darkreader-inline-fill: var(--darkreader-background-e7e2dd, #322b24); --darkreader-inline-stroke: none;" data-darkreader-inline-stroke=""></polygon>
<text text-anchor="start" x="801.7" y="-589.51" font-family="Helvetica,sans-Serif" font-style="italic" font-size="32.00" fill="#29235c" data-darkreader-inline-fill="" style="--darkreader-inline-fill: var(--darkreader-text-29235c, #a09ad8);">SERIAL &#160;&#160;pk</text>
<polygon fill="#ffffff" stroke="none" points="455,-508.31 455,-568.31 987,-568.31 987,-508.31 455,-508.31" data-darkreader-inline-fill="" style="--darkreader-inline-fill: var(--darkreader-background-ffffff, #181a1b); --darkreader-inline-stroke: none;" data-darkreader-inline-stroke=""></polygon>
<polygon fill="none" stroke="#29235c" points="455,-508.31 455,-568.31 987,-568.31 987,-508.31 455,-508.31" data-darkreader-inline-stroke="" style="--darkreader-inline-stroke: var(--darkreader-text-29235c, #a09ad8);"></polygon>
<text text-anchor="start" x="466" y="-528.51" font-family="Helvetica,sans-Serif" font-size="32.00" fill="#29235c" data-darkreader-inline-fill="" style="--darkreader-inline-fill: var(--darkreader-text-29235c, #a09ad8);">title &#160;&#160;</text>
<polygon fill="#ffffff" stroke="none" points="621.41,-518.91 621.41,-557.31 976,-557.31 976,-518.91 621.41,-518.91" data-darkreader-inline-fill="" style="--darkreader-inline-fill: var(--darkreader-background-ffffff, #181a1b); --darkreader-inline-stroke: none;" data-darkreader-inline-stroke=""></polygon>
<text text-anchor="start" x="700.36" y="-529.51" font-family="Helvetica,sans-Serif" font-style="italic" font-size="32.00" fill="#29235c" data-darkreader-inline-fill="" style="--darkreader-inline-fill: var(--darkreader-text-29235c, #a09ad8);">VARCHAR(1000) &#160;&#160;</text>
<polygon fill="#e7e2dd" stroke="none" points="455,-448.31 455,-508.31 987,-508.31 987,-448.31 455,-448.31" data-darkreader-inline-fill="" style="--darkreader-inline-fill: var(--darkreader-background-e7e2dd, #322b24); --darkreader-inline-stroke: none;" data-darkreader-inline-stroke=""></polygon>
<polygon fill="none" stroke="#29235c" points="455,-448.31 455,-508.31 987,-508.31 987,-448.31 455,-448.31" data-darkreader-inline-stroke="" style="--darkreader-inline-stroke: var(--darkreader-text-29235c, #a09ad8);"></polygon>
<text text-anchor="start" x="466" y="-468.51" font-family="Helvetica,sans-Serif" font-size="32.00" fill="#29235c" data-darkreader-inline-fill="" style="--darkreader-inline-fill: var(--darkreader-text-29235c, #a09ad8);">topic &#160;&#160;</text>
<polygon fill="#e7e2dd" stroke="none" points="639.21,-458.91 639.21,-497.31 976,-497.31 976,-458.91 639.21,-458.91" data-darkreader-inline-fill="" style="--darkreader-inline-fill: var(--darkreader-background-e7e2dd, #322b24); --darkreader-inline-stroke: none;" data-darkreader-inline-stroke=""></polygon>
<text text-anchor="start" x="718.16" y="-469.51" font-family="Helvetica,sans-Serif" font-style="italic" font-size="32.00" fill="#29235c" data-darkreader-inline-fill="" style="--darkreader-inline-fill: var(--darkreader-text-29235c, #a09ad8);">VARCHAR(255) &#160;&#160;</text>
<polygon fill="#ffffff" stroke="none" points="455,-388.31 455,-448.31 987,-448.31 987,-388.31 455,-388.31" data-darkreader-inline-fill="" style="--darkreader-inline-fill: var(--darkreader-background-ffffff, #181a1b); --darkreader-inline-stroke: none;" data-darkreader-inline-stroke=""></polygon>
<polygon fill="none" stroke="#29235c" points="455,-388.31 455,-448.31 987,-448.31 987,-388.31 455,-388.31" data-darkreader-inline-stroke="" style="--darkreader-inline-stroke: var(--darkreader-text-29235c, #a09ad8);"></polygon>
<text text-anchor="start" x="466" y="-408.51" font-family="Helvetica,sans-Serif" font-size="32.00" fill="#29235c" data-darkreader-inline-fill="" style="--darkreader-inline-fill: var(--darkreader-text-29235c, #a09ad8);">author &#160;&#160;</text>
<polygon fill="#ffffff" stroke="none" points="650.78,-398.91 650.78,-437.31 976,-437.31 976,-398.91 650.78,-398.91" data-darkreader-inline-fill="" style="--darkreader-inline-fill: var(--darkreader-background-ffffff, #181a1b); --darkreader-inline-stroke: none;" data-darkreader-inline-stroke=""></polygon>
<text text-anchor="start" x="718.16" y="-409.51" font-family="Helvetica,sans-Serif" font-style="italic" font-size="32.00" fill="#29235c" data-darkreader-inline-fill="" style="--darkreader-inline-fill: var(--darkreader-text-29235c, #a09ad8);">VARCHAR(255) &#160;&#160;</text>
<polygon fill="#e7e2dd" stroke="none" points="455,-328.31 455,-388.31 987,-388.31 987,-328.31 455,-328.31" data-darkreader-inline-fill="" style="--darkreader-inline-fill: var(--darkreader-background-e7e2dd, #322b24); --darkreader-inline-stroke: none;" data-darkreader-inline-stroke=""></polygon>
<polygon fill="none" stroke="#29235c" points="455,-328.31 455,-388.31 987,-388.31 987,-328.31 455,-328.31" data-darkreader-inline-stroke="" style="--darkreader-inline-stroke: var(--darkreader-text-29235c, #a09ad8);"></polygon>
<text text-anchor="start" x="466" y="-348.51" font-family="Helvetica,sans-Serif" font-size="32.00" fill="#29235c" data-darkreader-inline-fill="" style="--darkreader-inline-fill: var(--darkreader-text-29235c, #a09ad8);">body &#160;&#160;</text>
<polygon fill="#e7e2dd" stroke="none" points="714.8,-338.91 714.8,-377.31 976,-377.31 976,-338.91 714.8,-338.91" data-darkreader-inline-fill="" style="--darkreader-inline-fill: var(--darkreader-background-e7e2dd, #322b24); --darkreader-inline-stroke: none;" data-darkreader-inline-stroke=""></polygon>
<text text-anchor="start" x="867.55" y="-349.51" font-family="Helvetica,sans-Serif" font-style="italic" font-size="32.00" fill="#29235c" data-darkreader-inline-fill="" style="--darkreader-inline-fill: var(--darkreader-text-29235c, #a09ad8);">TEXT &#160;&#160;</text>
<polygon fill="#ffffff" stroke="none" points="455,-268.31 455,-328.31 987,-328.31 987,-268.31 455,-268.31" data-darkreader-inline-fill="" style="--darkreader-inline-fill: var(--darkreader-background-ffffff, #181a1b); --darkreader-inline-stroke: none;" data-darkreader-inline-stroke=""></polygon>
<polygon fill="none" stroke="#29235c" points="455,-268.31 455,-328.31 987,-328.31 987,-268.31 455,-268.31" data-darkreader-inline-stroke="" style="--darkreader-inline-stroke: var(--darkreader-text-29235c, #a09ad8);"></polygon>
<text text-anchor="start" x="466" y="-288.51" font-family="Helvetica,sans-Serif" font-size="32.00" fill="#29235c" data-darkreader-inline-fill="" style="--darkreader-inline-fill: var(--darkreader-text-29235c, #a09ad8);">created_at &#160;&#160;</text>
<polygon fill="#ffffff" stroke="none" points="703.27,-278.91 703.27,-317.31 976,-317.31 976,-278.91 703.27,-278.91" data-darkreader-inline-fill="" style="--darkreader-inline-fill: var(--darkreader-background-ffffff, #181a1b); --darkreader-inline-stroke: none;" data-darkreader-inline-stroke=""></polygon>
<text text-anchor="start" x="762.66" y="-289.51" font-family="Helvetica,sans-Serif" font-style="italic" font-size="32.00" fill="#29235c" data-darkreader-inline-fill="" style="--darkreader-inline-fill: var(--darkreader-text-29235c, #a09ad8);">TIMESTAMP &#160;&#160;</text>
<polygon fill="#e7e2dd" stroke="none" points="455,-208.31 455,-268.31 987,-268.31 987,-208.31 455,-208.31" data-darkreader-inline-fill="" style="--darkreader-inline-fill: var(--darkreader-background-e7e2dd, #322b24); --darkreader-inline-stroke: none;" data-darkreader-inline-stroke=""></polygon>
<polygon fill="none" stroke="#29235c" points="455,-208.31 455,-268.31 987,-268.31 987,-208.31 455,-208.31" data-darkreader-inline-stroke="" style="--darkreader-inline-stroke: var(--darkreader-text-29235c, #a09ad8);"></polygon>
<text text-anchor="start" x="466" y="-228.51" font-family="Helvetica,sans-Serif" font-size="32.00" fill="#29235c" data-darkreader-inline-fill="" style="--darkreader-inline-fill: var(--darkreader-text-29235c, #a09ad8);">votes &#160;&#160;</text>
<polygon fill="#e7e2dd" stroke="none" points="733.47,-218.91 733.47,-257.31 976,-257.31 976,-218.91 733.47,-218.91" data-darkreader-inline-fill="" style="--darkreader-inline-fill: var(--darkreader-background-e7e2dd, #322b24); --darkreader-inline-stroke: none;" data-darkreader-inline-stroke=""></polygon>
<text text-anchor="start" x="897.78" y="-229.51" font-family="Helvetica,sans-Serif" font-style="italic" font-size="32.00" fill="#29235c" data-darkreader-inline-fill="" style="--darkreader-inline-fill: var(--darkreader-text-29235c, #a09ad8);">INT &#160;&#160;</text>
<polygon fill="#ffffff" stroke="none" points="455,-148.31 455,-208.31 987,-208.31 987,-148.31 455,-148.31" data-darkreader-inline-fill="" style="--darkreader-inline-fill: var(--darkreader-background-ffffff, #181a1b); --darkreader-inline-stroke: none;" data-darkreader-inline-stroke=""></polygon>
<polygon fill="none" stroke="#29235c" points="455,-148.31 455,-208.31 987,-208.31 987,-148.31 455,-148.31" data-darkreader-inline-stroke="" style="--darkreader-inline-stroke: var(--darkreader-text-29235c, #a09ad8);"></polygon>
<text text-anchor="start" x="466" y="-168.51" font-family="Helvetica,sans-Serif" font-size="32.00" fill="#29235c" data-darkreader-inline-fill="" style="--darkreader-inline-fill: var(--darkreader-text-29235c, #a09ad8);">article_img_url &#160;&#160;</text>
<polygon fill="#ffffff" stroke="none" points="700.75,-158.91 700.75,-197.31 976.39,-197.31 976.39,-158.91 700.75,-158.91" data-darkreader-inline-fill="" style="--darkreader-inline-fill: var(--darkreader-background-ffffff, #181a1b); --darkreader-inline-stroke: none;" data-darkreader-inline-stroke=""></polygon>
<text text-anchor="start" x="700.75" y="-169.51" font-family="Helvetica,sans-Serif" font-style="italic" font-size="32.00" fill="#29235c" data-darkreader-inline-fill="" style="--darkreader-inline-fill: var(--darkreader-text-29235c, #a09ad8);">VARCHAR(1000) &#160;&#160;</text>
<polygon fill="none" stroke="#29235c" stroke-width="2" points="454,-147.31 454,-689.31 988,-689.31 988,-147.31 454,-147.31" data-darkreader-inline-stroke="" style="--darkreader-inline-stroke: var(--darkreader-text-29235c, #a09ad8);"></polygon>
</g>
<!-- articles&#45;&gt;users -->
<!-- articles&#45;&gt;users -->
<g id="edge4" class="edge">
<title>articles:e-&gt;users:w</title>
<path fill="none" stroke="#94a3b8" d="M988,-418.31C1078.59,-418.31 944.28,-226.76 1014.67,-209.55" data-darkreader-inline-stroke="" style="--darkreader-inline-stroke: var(--darkreader-text-94a3b8, #b0a99f);"></path>
<polygon fill="#94a3b8" stroke="#94a3b8" points="1014.93,-213.04 1024.5,-208.48 1014.18,-206.08 1014.93,-213.04" data-darkreader-inline-fill="" style="--darkreader-inline-fill: var(--darkreader-text-94a3b8, #b0a99f); --darkreader-inline-stroke: var(--darkreader-text-94a3b8, #b0a99f);" data-darkreader-inline-stroke=""></polygon>
</g>
<!-- articles&#45;&gt;topics -->
<!-- articles&#45;&gt;topics -->
<g id="edge2" class="edge">
<title>articles:e-&gt;topics:w</title>
<path fill="none" stroke="#94a3b8" d="M988,-478.31C1040.95,-478.31 988.25,-580.29 1024.69,-596.23" data-darkreader-inline-stroke="" style="--darkreader-inline-stroke: var(--darkreader-text-94a3b8, #b0a99f);"></path>
<polygon fill="#94a3b8" stroke="#94a3b8" points="1024.04,-599.67 1034.51,-598.04 1025.31,-592.78 1024.04,-599.67" data-darkreader-inline-fill="" style="--darkreader-inline-fill: var(--darkreader-text-94a3b8, #b0a99f); --darkreader-inline-stroke: var(--darkreader-text-94a3b8, #b0a99f);" data-darkreader-inline-stroke=""></polygon>
</g>
<!-- comments -->
<g id="node4" class="node">
<title>comments</title>
<polygon fill="blue" stroke="none" points="2,-489.31 2,-549.31 415,-549.31 415,-489.31 2,-489.31" data-darkreader-inline-fill="" style="--darkreader-inline-fill: var(--darkreader-background-0000ff, #0000cc); --darkreader-inline-stroke: none;" data-darkreader-inline-stroke=""></polygon>
<polygon fill="none" stroke="#29235c" points="2,-489.31 2,-549.31 415,-549.31 415,-489.31 2,-489.31" data-darkreader-inline-stroke="" style="--darkreader-inline-stroke: var(--darkreader-text-29235c, #a09ad8);"></polygon>
<text text-anchor="start" x="128.48" y="-510.51" font-family="Helvetica,sans-Serif" font-weight="bold" font-size="32.00" fill="#ffffff" data-darkreader-inline-fill="" style="--darkreader-inline-fill: var(--darkreader-text-ffffff, #e8e6e3);">comments</text>
<polygon fill="#e7e2dd" stroke="none" points="2,-429.31 2,-489.31 415,-489.31 415,-429.31 2,-429.31" data-darkreader-inline-fill="" style="--darkreader-inline-fill: var(--darkreader-background-e7e2dd, #322b24); --darkreader-inline-stroke: none;" data-darkreader-inline-stroke=""></polygon>
<polygon fill="none" stroke="#29235c" points="2,-429.31 2,-489.31 415,-489.31 415,-429.31 2,-429.31" data-darkreader-inline-stroke="" style="--darkreader-inline-stroke: var(--darkreader-text-29235c, #a09ad8);"></polygon>
<text text-anchor="start" x="13" y="-449.51" font-family="Helvetica,sans-Serif" font-size="32.00" fill="#29235c" data-darkreader-inline-fill="" style="--darkreader-inline-fill: var(--darkreader-text-29235c, #a09ad8);">comment_id &#160;&#160;</text>
<polygon fill="#e7e2dd" stroke="none" points="221.84,-439.91 221.84,-478.31 404,-478.31 404,-439.91 221.84,-439.91" data-darkreader-inline-fill="" style="--darkreader-inline-fill: var(--darkreader-background-e7e2dd, #322b24); --darkreader-inline-stroke: none;" data-darkreader-inline-stroke=""></polygon>
<text text-anchor="start" x="229.7" y="-450.51" font-family="Helvetica,sans-Serif" font-style="italic" font-size="32.00" fill="#29235c" data-darkreader-inline-fill="" style="--darkreader-inline-fill: var(--darkreader-text-29235c, #a09ad8);">SERIAL &#160;&#160;pk</text>
<polygon fill="#ffffff" stroke="none" points="2,-369.31 2,-429.31 415,-429.31 415,-369.31 2,-369.31" data-darkreader-inline-fill="" style="--darkreader-inline-fill: var(--darkreader-background-ffffff, #181a1b); --darkreader-inline-stroke: none;" data-darkreader-inline-stroke=""></polygon>
<polygon fill="none" stroke="#29235c" points="2,-369.31 2,-429.31 415,-429.31 415,-369.31 2,-369.31" data-darkreader-inline-stroke="" style="--darkreader-inline-stroke: var(--darkreader-text-29235c, #a09ad8);"></polygon>
<text text-anchor="start" x="13" y="-389.51" font-family="Helvetica,sans-Serif" font-size="32.00" fill="#29235c" data-darkreader-inline-fill="" style="--darkreader-inline-fill: var(--darkreader-text-29235c, #a09ad8);">article_id &#160;&#160;</text>
<polygon fill="#ffffff" stroke="none" points="246.76,-379.91 246.76,-418.31 404,-418.31 404,-379.91 246.76,-379.91" data-darkreader-inline-fill="" style="--darkreader-inline-fill: var(--darkreader-background-ffffff, #181a1b); --darkreader-inline-stroke: none;" data-darkreader-inline-stroke=""></polygon>
<text text-anchor="start" x="325.78" y="-390.51" font-family="Helvetica,sans-Serif" font-style="italic" font-size="32.00" fill="#29235c" data-darkreader-inline-fill="" style="--darkreader-inline-fill: var(--darkreader-text-29235c, #a09ad8);">INT &#160;&#160;</text>
<polygon fill="#e7e2dd" stroke="none" points="2,-309.31 2,-369.31 415,-369.31 415,-309.31 2,-309.31" data-darkreader-inline-fill="" style="--darkreader-inline-fill: var(--darkreader-background-e7e2dd, #322b24); --darkreader-inline-stroke: none;" data-darkreader-inline-stroke=""></polygon>
<polygon fill="none" stroke="#29235c" points="2,-309.31 2,-369.31 415,-369.31 415,-309.31 2,-309.31" data-darkreader-inline-stroke="" style="--darkreader-inline-stroke: var(--darkreader-text-29235c, #a09ad8);"></polygon>
<text text-anchor="start" x="13" y="-329.51" font-family="Helvetica,sans-Serif" font-size="32.00" fill="#29235c" data-darkreader-inline-fill="" style="--darkreader-inline-fill: var(--darkreader-text-29235c, #a09ad8);">body &#160;&#160;</text>
<polygon fill="#e7e2dd" stroke="none" points="202.3,-319.91 202.3,-358.31 404,-358.31 404,-319.91 202.3,-319.91" data-darkreader-inline-fill="" style="--darkreader-inline-fill: var(--darkreader-background-e7e2dd, #322b24); --darkreader-inline-stroke: none;" data-darkreader-inline-stroke=""></polygon>
<text text-anchor="start" x="295.55" y="-330.51" font-family="Helvetica,sans-Serif" font-style="italic" font-size="32.00" fill="#29235c" data-darkreader-inline-fill="" style="--darkreader-inline-fill: var(--darkreader-text-29235c, #a09ad8);">TEXT &#160;&#160;</text>
<polygon fill="#ffffff" stroke="none" points="2,-249.31 2,-309.31 415,-309.31 415,-249.31 2,-249.31" data-darkreader-inline-fill="" style="--darkreader-inline-fill: var(--darkreader-background-ffffff, #181a1b); --darkreader-inline-stroke: none;" data-darkreader-inline-stroke=""></polygon>
<polygon fill="none" stroke="#29235c" points="2,-249.31 2,-309.31 415,-309.31 415,-249.31 2,-249.31" data-darkreader-inline-stroke="" style="--darkreader-inline-stroke: var(--darkreader-text-29235c, #a09ad8);"></polygon>
<text text-anchor="start" x="13" y="-269.51" font-family="Helvetica,sans-Serif" font-size="32.00" fill="#29235c" data-darkreader-inline-fill="" style="--darkreader-inline-fill: var(--darkreader-text-29235c, #a09ad8);">votes &#160;&#160;</text>
<polygon fill="#ffffff" stroke="none" points="220.97,-259.91 220.97,-298.31 404,-298.31 404,-259.91 220.97,-259.91" data-darkreader-inline-fill="" style="--darkreader-inline-fill: var(--darkreader-background-ffffff, #181a1b); --darkreader-inline-stroke: none;" data-darkreader-inline-stroke=""></polygon>
<text text-anchor="start" x="325.78" y="-270.51" font-family="Helvetica,sans-Serif" font-style="italic" font-size="32.00" fill="#29235c" data-darkreader-inline-fill="" style="--darkreader-inline-fill: var(--darkreader-text-29235c, #a09ad8);">INT &#160;&#160;</text>
<polygon fill="#e7e2dd" stroke="none" points="2,-189.31 2,-249.31 415,-249.31 415,-189.31 2,-189.31" data-darkreader-inline-fill="" style="--darkreader-inline-fill: var(--darkreader-background-e7e2dd, #322b24); --darkreader-inline-stroke: none;" data-darkreader-inline-stroke=""></polygon>
<polygon fill="none" stroke="#29235c" points="2,-189.31 2,-249.31 415,-249.31 415,-189.31 2,-189.31" data-darkreader-inline-stroke="" style="--darkreader-inline-stroke: var(--darkreader-text-29235c, #a09ad8);"></polygon>
<text text-anchor="start" x="13" y="-209.51" font-family="Helvetica,sans-Serif" font-size="32.00" fill="#29235c" data-darkreader-inline-fill="" style="--darkreader-inline-fill: var(--darkreader-text-29235c, #a09ad8);">author &#160;&#160;</text>
<polygon fill="#e7e2dd" stroke="none" points="138.28,-199.91 138.28,-238.31 404,-238.31 404,-199.91 138.28,-199.91" data-darkreader-inline-fill="" style="--darkreader-inline-fill: var(--darkreader-background-e7e2dd, #322b24); --darkreader-inline-stroke: none;" data-darkreader-inline-stroke=""></polygon>
<text text-anchor="start" x="146.16" y="-210.51" font-family="Helvetica,sans-Serif" font-style="italic" font-size="32.00" fill="#29235c" data-darkreader-inline-fill="" style="--darkreader-inline-fill: var(--darkreader-text-29235c, #a09ad8);">VARCHAR(255) &#160;&#160;</text>
<polygon fill="#ffffff" stroke="none" points="2,-129.31 2,-189.31 415,-189.31 415,-129.31 2,-129.31" data-darkreader-inline-fill="" style="--darkreader-inline-fill: var(--darkreader-background-ffffff, #181a1b); --darkreader-inline-stroke: none;" data-darkreader-inline-stroke=""></polygon>
<polygon fill="none" stroke="#29235c" points="2,-129.31 2,-189.31 415,-189.31 415,-129.31 2,-129.31" data-darkreader-inline-stroke="" style="--darkreader-inline-stroke: var(--darkreader-text-29235c, #a09ad8);"></polygon>
<text text-anchor="start" x="13" y="-149.51" font-family="Helvetica,sans-Serif" font-size="32.00" fill="#29235c" data-darkreader-inline-fill="" style="--darkreader-inline-fill: var(--darkreader-text-29235c, #a09ad8);">created_at &#160;&#160;</text>
<polygon fill="#ffffff" stroke="none" points="190.89,-139.91 190.89,-178.31 404.23,-178.31 404.23,-139.91 190.89,-139.91" data-darkreader-inline-fill="" style="--darkreader-inline-fill: var(--darkreader-background-ffffff, #181a1b); --darkreader-inline-stroke: none;" data-darkreader-inline-stroke=""></polygon>
<text text-anchor="start" x="190.89" y="-150.51" font-family="Helvetica,sans-Serif" font-style="italic" font-size="32.00" fill="#29235c" data-darkreader-inline-fill="" style="--darkreader-inline-fill: var(--darkreader-text-29235c, #a09ad8);">TIMESTAMP &#160;&#160;</text>
<polygon fill="none" stroke="#29235c" stroke-width="2" points="1,-128.31 1,-550.31 416,-550.31 416,-128.31 1,-128.31" data-darkreader-inline-stroke="" style="--darkreader-inline-stroke: var(--darkreader-text-29235c, #a09ad8);"></polygon>
</g>
<!-- comments&#45;&gt;users -->
<!-- comments&#45;&gt;users -->
<g id="edge8" class="edge">
<title>comments:e-&gt;users:w</title>
<path fill="none" stroke="#94a3b8" d="M416.5,-219.31C470.12,-219.31 409.73,-135.98 453,-104.31 645.25,36.37 794.36,33.03 989,-104.31 1025.33,-129.95 985.91,-194.53 1014.71,-206.42" data-darkreader-inline-stroke="" style="--darkreader-inline-stroke: var(--darkreader-text-94a3b8, #b0a99f);"></path>
<polygon fill="#94a3b8" stroke="#94a3b8" points="1014.07,-209.86 1024.51,-208.06 1015.22,-202.95 1014.07,-209.86" data-darkreader-inline-fill="" style="--darkreader-inline-fill: var(--darkreader-text-94a3b8, #b0a99f); --darkreader-inline-stroke: var(--darkreader-text-94a3b8, #b0a99f);" data-darkreader-inline-stroke=""></polygon>
</g>
<!-- comments&#45;&gt;articles -->
<!-- comments&#45;&gt;articles -->
<g id="edge6" class="edge">
<title>comments:e-&gt;articles:w</title>
<path fill="none" stroke="#94a3b8" d="M416.5,-399.31C502.28,-399.31 376.85,-580.09 442.83,-597.04" data-darkreader-inline-stroke="" style="--darkreader-inline-stroke: var(--darkreader-text-94a3b8, #b0a99f);"></path>
<polygon fill="#94a3b8" stroke="#94a3b8" points="442.16,-600.49 452.5,-598.14 442.96,-593.53 442.16,-600.49" data-darkreader-inline-fill="" style="--darkreader-inline-fill: var(--darkreader-text-94a3b8, #b0a99f); --darkreader-inline-stroke: var(--darkreader-text-94a3b8, #b0a99f);" data-darkreader-inline-stroke=""></polygon>
</g>
</g>
</g></svg>